<svg width="18" height="21" viewBox="0 0 18 21" fill="none" xmlns="http://www.w3.org/2000/svg">
<path d="M9.28319 4.98322C10.2188 4.98322 11.3915 4.35073 12.0899 3.5074C12.7224 2.74314 13.1836 1.67581 13.1836 0.608485C13.1836 0.463539 13.1704 0.318593 13.144 0.200001C12.103 0.239531 10.8512 0.898377 10.1002 1.78123C9.5072 2.45325 8.96694 3.5074 8.96694 4.58791C8.96694 4.74603 8.9933 4.90416 9.00647 4.95686C9.07236 4.97004 9.17777 4.98322 9.28319 4.98322ZM5.98896 20.9273C7.26712 20.9273 7.83373 20.0708 9.42814 20.0708C11.0489 20.0708 11.4047 20.9009 12.8278 20.9009C14.2245 20.9009 15.1601 19.6096 16.0429 18.3446C17.0312 16.8951 17.4397 15.472 17.466 15.4061C17.3738 15.3798 14.6989 14.2861 14.6989 11.2159C14.6989 8.55416 16.8072 7.35506 16.9258 7.26282C15.529 5.25993 13.4076 5.20722 12.8278 5.20722C11.2597 5.20722 9.98157 6.15596 9.17777 6.15596C8.3081 6.15596 7.16171 5.25993 5.80449 5.25993C3.22181 5.25993 0.599609 7.39459 0.599609 11.4267C0.599609 13.9303 1.5747 16.5789 2.7738 18.2919C3.8016 19.7414 4.69763 20.9273 5.98896 20.9273Z" fill="black"/>
</svg>
