<svg width="30" height="30" viewBox="0 0 30 30" fill="none" xmlns="http://www.w3.org/2000/svg">
<path fill-rule="evenodd" clip-rule="evenodd" d="M25.368 15.2455C25.368 14.4796 25.2993 13.7433 25.1716 13.0364H15V17.214H20.8124C20.562 18.564 19.8011 19.7078 18.6573 20.4736V23.1835H22.1476C24.1898 21.3033 25.368 18.5346 25.368 15.2455Z" fill="#4285F4"/>
<path fill-rule="evenodd" clip-rule="evenodd" d="M14.9999 25.8C17.9159 25.8 20.3606 24.8329 22.1475 23.1834L18.6572 20.4736C17.6901 21.1216 16.453 21.5045 14.9999 21.5045C12.187 21.5045 9.80609 19.6047 8.95681 17.052H5.34863V19.8502C7.12572 23.3798 10.7781 25.8 14.9999 25.8Z" fill="#34A853"/>
<path fill-rule="evenodd" clip-rule="evenodd" d="M8.9571 17.052C8.7411 16.404 8.61838 15.7118 8.61838 15C8.61838 14.2882 8.7411 13.596 8.9571 12.948V10.1498H5.34892C4.61747 11.6078 4.2002 13.2573 4.2002 15C4.2002 16.7427 4.61747 18.3922 5.34892 19.8502L8.9571 17.052Z" fill="#FBBC05"/>
<path fill-rule="evenodd" clip-rule="evenodd" d="M14.9999 8.49545C16.5855 8.49545 18.0092 9.04036 19.1284 10.1105L22.2261 7.01291C20.3557 5.27018 17.911 4.2 14.9999 4.2C10.7781 4.2 7.12572 6.62018 5.34863 10.1498L8.95681 12.948C9.80609 10.3953 12.187 8.49545 14.9999 8.49545Z" fill="#EA4335"/>
</svg>
