<svg width="20" height="20" viewBox="0 0 20 20" fill="none" xmlns="http://www.w3.org/2000/svg">
<path d="M5.51238 11.8982C5.51238 14.456 7.05358 18.9452 7.05358 18.9452H10.4365C10.4365 18.9452 8.67185 14.0506 8.67185 11.9292M5.51238 11.8982C3.30226 11.8982 2.01562 10.1682 2.01562 7.99587C2.01562 5.82356 3.80728 4.06255 6.01741 4.06255H8.67185L8.6808 4.07145M5.51238 11.8982L8.67185 11.9292M8.67185 11.9292H9.98887C13.1171 11.9292 14.2306 12.1717 15.8675 12.7342L17.2104 13.1792L18.929 13.9155L18.9418 13.9075V2.07594L18.9291 2.06785L18.3273 2.34147C18.3273 2.34147 17.5999 2.67258 16.7513 2.95411C15.1151 3.49698 13.1752 4.07145 10.048 4.07145H8.6808M8.67185 11.9292L8.6808 4.07145" stroke="#8D8D8D" stroke-linecap="round" stroke-linejoin="round"/>
</svg>
