<svg width="18" height="18" viewBox="0 0 18 18" fill="none" xmlns="http://www.w3.org/2000/svg">
<path d="M4.83366 17.3333H2.33366C1.89163 17.3333 1.46771 17.1577 1.15515 16.8452C0.842587 16.5326 0.666992 16.1087 0.666992 15.6667V9.83333C0.666992 9.3913 0.842587 8.96738 1.15515 8.65482C1.46771 8.34226 1.89163 8.16667 2.33366 8.16667H4.83366M10.667 6.5V3.16667C10.667 2.50362 10.4036 1.86774 9.93476 1.3989C9.46592 0.930058 8.83003 0.666666 8.16699 0.666666L4.83366 8.16667V17.3333H14.2337C14.6356 17.3379 15.0256 17.197 15.3319 16.9367C15.6382 16.6763 15.8401 16.3141 15.9003 15.9167L17.0503 8.41667C17.0866 8.1778 17.0705 7.9339 17.0031 7.70188C16.9357 7.46985 16.8187 7.25524 16.6602 7.07293C16.5017 6.89061 16.3054 6.74494 16.085 6.64601C15.8645 6.54709 15.6252 6.49726 15.3837 6.5H10.667Z" stroke="#8D8D8D" stroke-linecap="round" stroke-linejoin="round"/>
</svg>
