<svg width="24" height="24" viewBox="0 0 24 24" fill="none" xmlns="http://www.w3.org/2000/svg">
<path d="M5 7.20001H6.6H19.4" stroke="#171717" stroke-linecap="round" stroke-linejoin="round"/>
<path d="M9.0001 7.2V5.6C9.0001 5.17565 9.16867 4.76869 9.46873 4.46863C9.76879 4.16857 10.1758 4 10.6001 4H13.8001C14.2244 4 14.6314 4.16857 14.9315 4.46863C15.2315 4.76869 15.4001 5.17565 15.4001 5.6V7.2M17.8001 7.2V18.4C17.8001 18.8243 17.6315 19.2313 17.3315 19.5314C17.0314 19.8314 16.6244 20 16.2001 20H8.2001C7.77575 20 7.36878 19.8314 7.06873 19.5314C6.76867 19.2313 6.6001 18.8243 6.6001 18.4V7.2H17.8001Z" stroke="#171717" stroke-linecap="round" stroke-linejoin="round"/>
</svg>
